<mxfile host="app.diagrams.net" agent="Mozilla/5.0 (Windows NT 10.0; Win64; x64) AppleWebKit/537.36 (KHTML, like Gecko) Chrome/134.0.0.0 Safari/537.36 OPR/119.0.0.0" version="27.1.6">
  <diagram name="Page-1" id="MbOM5cgPBywzm_mW2uJk">
    <mxGraphModel dx="946" dy="560" grid="1" gridSize="10" guides="1" tooltips="1" connect="1" arrows="1" fold="1" page="1" pageScale="1" pageWidth="827" pageHeight="1169" math="0" shadow="0">
      <root>
        <mxCell id="0" />
        <mxCell id="1" parent="0" />
        <mxCell id="kKd4rB5IMCep5pnRC2KL-1" value="" style="swimlane;startSize=0;" vertex="1" parent="1">
          <mxGeometry x="320" y="80" width="170" height="350" as="geometry" />
        </mxCell>
        <mxCell id="kKd4rB5IMCep5pnRC2KL-2" value="Consult Projects" style="ellipse;whiteSpace=wrap;html=1;" vertex="1" parent="kKd4rB5IMCep5pnRC2KL-1">
          <mxGeometry x="25" y="30" width="120" height="40" as="geometry" />
        </mxCell>
        <mxCell id="kKd4rB5IMCep5pnRC2KL-3" value="Filter Projects" style="ellipse;whiteSpace=wrap;html=1;" vertex="1" parent="kKd4rB5IMCep5pnRC2KL-1">
          <mxGeometry x="25" y="140" width="120" height="40" as="geometry" />
        </mxCell>
        <mxCell id="kKd4rB5IMCep5pnRC2KL-4" value="Send Mail" style="ellipse;whiteSpace=wrap;html=1;" vertex="1" parent="kKd4rB5IMCep5pnRC2KL-1">
          <mxGeometry x="25" y="250" width="120" height="40" as="geometry" />
        </mxCell>
        <mxCell id="kKd4rB5IMCep5pnRC2KL-5" value="" style="swimlane;startSize=0;" vertex="1" parent="1">
          <mxGeometry x="285" y="520" width="240" height="280" as="geometry" />
        </mxCell>
        <mxCell id="kKd4rB5IMCep5pnRC2KL-6" value="Consult Projects" style="ellipse;whiteSpace=wrap;html=1;" vertex="1" parent="kKd4rB5IMCep5pnRC2KL-5">
          <mxGeometry x="60" y="110" width="120" height="40" as="geometry" />
        </mxCell>
        <mxCell id="kKd4rB5IMCep5pnRC2KL-13" style="rounded=0;orthogonalLoop=1;jettySize=auto;html=1;dashed=1;" edge="1" parent="kKd4rB5IMCep5pnRC2KL-5" source="kKd4rB5IMCep5pnRC2KL-11" target="kKd4rB5IMCep5pnRC2KL-6">
          <mxGeometry relative="1" as="geometry" />
        </mxCell>
        <mxCell id="kKd4rB5IMCep5pnRC2KL-14" value="Extends" style="edgeLabel;html=1;align=center;verticalAlign=middle;resizable=0;points=[];" vertex="1" connectable="0" parent="kKd4rB5IMCep5pnRC2KL-13">
          <mxGeometry x="-0.2038" relative="1" as="geometry">
            <mxPoint as="offset" />
          </mxGeometry>
        </mxCell>
        <mxCell id="kKd4rB5IMCep5pnRC2KL-11" value="Use paging" style="ellipse;whiteSpace=wrap;html=1;" vertex="1" parent="kKd4rB5IMCep5pnRC2KL-5">
          <mxGeometry x="60" y="10" width="120" height="40" as="geometry" />
        </mxCell>
        <mxCell id="kKd4rB5IMCep5pnRC2KL-17" style="edgeStyle=orthogonalEdgeStyle;rounded=0;orthogonalLoop=1;jettySize=auto;html=1;dashed=1;" edge="1" parent="kKd4rB5IMCep5pnRC2KL-5" source="kKd4rB5IMCep5pnRC2KL-12" target="kKd4rB5IMCep5pnRC2KL-6">
          <mxGeometry relative="1" as="geometry" />
        </mxCell>
        <mxCell id="kKd4rB5IMCep5pnRC2KL-18" value="Extends" style="edgeLabel;html=1;align=center;verticalAlign=middle;resizable=0;points=[];" vertex="1" connectable="0" parent="kKd4rB5IMCep5pnRC2KL-17">
          <mxGeometry x="-0.1494" y="2" relative="1" as="geometry">
            <mxPoint as="offset" />
          </mxGeometry>
        </mxCell>
        <mxCell id="kKd4rB5IMCep5pnRC2KL-12" value="See Details" style="ellipse;whiteSpace=wrap;html=1;" vertex="1" parent="kKd4rB5IMCep5pnRC2KL-5">
          <mxGeometry x="60" y="210" width="120" height="40" as="geometry" />
        </mxCell>
        <mxCell id="kKd4rB5IMCep5pnRC2KL-19" value="" style="swimlane;startSize=0;" vertex="1" parent="1">
          <mxGeometry x="304" y="850" width="200" height="270" as="geometry" />
        </mxCell>
        <mxCell id="kKd4rB5IMCep5pnRC2KL-26" value="See Details" style="ellipse;whiteSpace=wrap;html=1;" vertex="1" parent="kKd4rB5IMCep5pnRC2KL-19">
          <mxGeometry x="40" y="180" width="120" height="40" as="geometry" />
        </mxCell>
        <mxCell id="kKd4rB5IMCep5pnRC2KL-28" value="" style="edgeStyle=orthogonalEdgeStyle;rounded=0;orthogonalLoop=1;jettySize=auto;html=1;dashed=1;" edge="1" parent="kKd4rB5IMCep5pnRC2KL-19" source="kKd4rB5IMCep5pnRC2KL-27" target="kKd4rB5IMCep5pnRC2KL-26">
          <mxGeometry relative="1" as="geometry" />
        </mxCell>
        <mxCell id="kKd4rB5IMCep5pnRC2KL-29" value="Extends" style="edgeLabel;html=1;align=center;verticalAlign=middle;resizable=0;points=[];" vertex="1" connectable="0" parent="kKd4rB5IMCep5pnRC2KL-28">
          <mxGeometry x="-0.1167" relative="1" as="geometry">
            <mxPoint as="offset" />
          </mxGeometry>
        </mxCell>
        <mxCell id="kKd4rB5IMCep5pnRC2KL-27" value="Go Back to main page" style="ellipse;whiteSpace=wrap;html=1;" vertex="1" parent="kKd4rB5IMCep5pnRC2KL-19">
          <mxGeometry x="40" y="50" width="120" height="40" as="geometry" />
        </mxCell>
        <mxCell id="kKd4rB5IMCep5pnRC2KL-30" value="" style="swimlane;startSize=0;" vertex="1" parent="1">
          <mxGeometry x="314" y="1580" width="200" height="400" as="geometry" />
        </mxCell>
        <mxCell id="kKd4rB5IMCep5pnRC2KL-40" value="" style="edgeStyle=orthogonalEdgeStyle;rounded=0;orthogonalLoop=1;jettySize=auto;html=1;" edge="1" parent="kKd4rB5IMCep5pnRC2KL-30" source="kKd4rB5IMCep5pnRC2KL-31" target="kKd4rB5IMCep5pnRC2KL-38">
          <mxGeometry relative="1" as="geometry" />
        </mxCell>
        <mxCell id="kKd4rB5IMCep5pnRC2KL-41" value="Includes" style="edgeLabel;html=1;align=center;verticalAlign=middle;resizable=0;points=[];" vertex="1" connectable="0" parent="kKd4rB5IMCep5pnRC2KL-40">
          <mxGeometry x="-0.1034" y="-1" relative="1" as="geometry">
            <mxPoint as="offset" />
          </mxGeometry>
        </mxCell>
        <mxCell id="kKd4rB5IMCep5pnRC2KL-31" value="Send Mail" style="ellipse;whiteSpace=wrap;html=1;" vertex="1" parent="kKd4rB5IMCep5pnRC2KL-30">
          <mxGeometry x="40" y="230" width="120" height="40" as="geometry" />
        </mxCell>
        <mxCell id="kKd4rB5IMCep5pnRC2KL-32" value="" style="edgeStyle=orthogonalEdgeStyle;rounded=0;orthogonalLoop=1;jettySize=auto;html=1;" edge="1" parent="kKd4rB5IMCep5pnRC2KL-30" source="kKd4rB5IMCep5pnRC2KL-31" target="kKd4rB5IMCep5pnRC2KL-34">
          <mxGeometry relative="1" as="geometry" />
        </mxCell>
        <mxCell id="kKd4rB5IMCep5pnRC2KL-33" value="Includes" style="edgeLabel;html=1;align=center;verticalAlign=middle;resizable=0;points=[];" vertex="1" connectable="0" parent="kKd4rB5IMCep5pnRC2KL-32">
          <mxGeometry x="-0.1167" relative="1" as="geometry">
            <mxPoint as="offset" />
          </mxGeometry>
        </mxCell>
        <mxCell id="kKd4rB5IMCep5pnRC2KL-36" value="" style="edgeStyle=orthogonalEdgeStyle;rounded=0;orthogonalLoop=1;jettySize=auto;html=1;dashed=1;" edge="1" parent="kKd4rB5IMCep5pnRC2KL-30" source="kKd4rB5IMCep5pnRC2KL-35" target="kKd4rB5IMCep5pnRC2KL-34">
          <mxGeometry relative="1" as="geometry" />
        </mxCell>
        <mxCell id="kKd4rB5IMCep5pnRC2KL-37" value="Extends" style="edgeLabel;html=1;align=center;verticalAlign=middle;resizable=0;points=[];" vertex="1" connectable="0" parent="kKd4rB5IMCep5pnRC2KL-36">
          <mxGeometry x="-0.1034" y="4" relative="1" as="geometry">
            <mxPoint as="offset" />
          </mxGeometry>
        </mxCell>
        <mxCell id="kKd4rB5IMCep5pnRC2KL-34" value="Complete form&amp;nbsp;" style="ellipse;whiteSpace=wrap;html=1;" vertex="1" parent="kKd4rB5IMCep5pnRC2KL-30">
          <mxGeometry x="40" y="130" width="120" height="40" as="geometry" />
        </mxCell>
        <mxCell id="kKd4rB5IMCep5pnRC2KL-35" value="Send form&amp;nbsp;" style="ellipse;whiteSpace=wrap;html=1;" vertex="1" parent="kKd4rB5IMCep5pnRC2KL-30">
          <mxGeometry x="40" y="40" width="120" height="40" as="geometry" />
        </mxCell>
        <mxCell id="kKd4rB5IMCep5pnRC2KL-38" value="Receive Mail" style="ellipse;whiteSpace=wrap;html=1;" vertex="1" parent="kKd4rB5IMCep5pnRC2KL-30">
          <mxGeometry x="40" y="310" width="120" height="40" as="geometry" />
        </mxCell>
        <mxCell id="kKd4rB5IMCep5pnRC2KL-42" value="" style="swimlane;startSize=0;" vertex="1" parent="1">
          <mxGeometry x="329" y="1190" width="170" height="350" as="geometry" />
        </mxCell>
        <mxCell id="kKd4rB5IMCep5pnRC2KL-44" value="Filter Project" style="ellipse;whiteSpace=wrap;html=1;" vertex="1" parent="kKd4rB5IMCep5pnRC2KL-42">
          <mxGeometry x="20" y="240" width="120" height="40" as="geometry" />
        </mxCell>
        <mxCell id="kKd4rB5IMCep5pnRC2KL-47" value="" style="rounded=0;orthogonalLoop=1;jettySize=auto;html=1;" edge="1" parent="kKd4rB5IMCep5pnRC2KL-42" source="kKd4rB5IMCep5pnRC2KL-44" target="kKd4rB5IMCep5pnRC2KL-46">
          <mxGeometry relative="1" as="geometry" />
        </mxCell>
        <mxCell id="kKd4rB5IMCep5pnRC2KL-48" value="Includes" style="edgeLabel;html=1;align=center;verticalAlign=middle;resizable=0;points=[];" vertex="1" connectable="0" parent="kKd4rB5IMCep5pnRC2KL-47">
          <mxGeometry x="-0.0172" relative="1" as="geometry">
            <mxPoint as="offset" />
          </mxGeometry>
        </mxCell>
        <mxCell id="kKd4rB5IMCep5pnRC2KL-46" value="Open Menu" style="ellipse;whiteSpace=wrap;html=1;" vertex="1" parent="kKd4rB5IMCep5pnRC2KL-42">
          <mxGeometry x="20" y="170" width="120" height="40" as="geometry" />
        </mxCell>
        <mxCell id="kKd4rB5IMCep5pnRC2KL-50" value="" style="edgeStyle=orthogonalEdgeStyle;rounded=0;orthogonalLoop=1;jettySize=auto;html=1;" edge="1" parent="kKd4rB5IMCep5pnRC2KL-42" source="kKd4rB5IMCep5pnRC2KL-46" target="kKd4rB5IMCep5pnRC2KL-49">
          <mxGeometry relative="1" as="geometry" />
        </mxCell>
        <mxCell id="kKd4rB5IMCep5pnRC2KL-51" value="Includes" style="edgeLabel;html=1;align=center;verticalAlign=middle;resizable=0;points=[];" vertex="1" connectable="0" parent="kKd4rB5IMCep5pnRC2KL-50">
          <mxGeometry x="0.5867" y="-2" relative="1" as="geometry">
            <mxPoint x="-2" y="13" as="offset" />
          </mxGeometry>
        </mxCell>
        <mxCell id="kKd4rB5IMCep5pnRC2KL-49" value="Choose filters" style="ellipse;whiteSpace=wrap;html=1;" vertex="1" parent="kKd4rB5IMCep5pnRC2KL-42">
          <mxGeometry x="20" y="90" width="120" height="40" as="geometry" />
        </mxCell>
        <mxCell id="kKd4rB5IMCep5pnRC2KL-54" value="" style="edgeStyle=orthogonalEdgeStyle;rounded=0;orthogonalLoop=1;jettySize=auto;html=1;dashed=1;" edge="1" parent="kKd4rB5IMCep5pnRC2KL-42" source="kKd4rB5IMCep5pnRC2KL-52" target="kKd4rB5IMCep5pnRC2KL-49">
          <mxGeometry relative="1" as="geometry" />
        </mxCell>
        <mxCell id="kKd4rB5IMCep5pnRC2KL-55" value="Extends" style="edgeLabel;html=1;align=center;verticalAlign=middle;resizable=0;points=[];" vertex="1" connectable="0" parent="kKd4rB5IMCep5pnRC2KL-54">
          <mxGeometry x="-0.6225" y="1" relative="1" as="geometry">
            <mxPoint x="-1" y="2" as="offset" />
          </mxGeometry>
        </mxCell>
        <mxCell id="kKd4rB5IMCep5pnRC2KL-52" value="Refresh without loading&amp;nbsp;" style="ellipse;whiteSpace=wrap;html=1;" vertex="1" parent="kKd4rB5IMCep5pnRC2KL-42">
          <mxGeometry x="20" y="10" width="120" height="40" as="geometry" />
        </mxCell>
        <mxCell id="kKd4rB5IMCep5pnRC2KL-60" style="rounded=0;orthogonalLoop=1;jettySize=auto;html=1;entryX=0;entryY=0.5;entryDx=0;entryDy=0;" edge="1" parent="1" target="kKd4rB5IMCep5pnRC2KL-2">
          <mxGeometry relative="1" as="geometry">
            <mxPoint x="230" y="220" as="sourcePoint" />
          </mxGeometry>
        </mxCell>
        <mxCell id="kKd4rB5IMCep5pnRC2KL-59" value="User" style="shape=umlActor;verticalLabelPosition=bottom;verticalAlign=top;html=1;outlineConnect=0;" vertex="1" parent="1">
          <mxGeometry x="200" y="200" width="30" height="60" as="geometry" />
        </mxCell>
        <mxCell id="kKd4rB5IMCep5pnRC2KL-61" style="rounded=0;orthogonalLoop=1;jettySize=auto;html=1;entryX=0;entryY=0.5;entryDx=0;entryDy=0;exitX=1;exitY=0.3333333333333333;exitDx=0;exitDy=0;exitPerimeter=0;" edge="1" parent="1" source="kKd4rB5IMCep5pnRC2KL-59" target="kKd4rB5IMCep5pnRC2KL-3">
          <mxGeometry relative="1" as="geometry" />
        </mxCell>
        <mxCell id="kKd4rB5IMCep5pnRC2KL-62" style="rounded=0;orthogonalLoop=1;jettySize=auto;html=1;entryX=0;entryY=0.5;entryDx=0;entryDy=0;exitX=1;exitY=0.3333333333333333;exitDx=0;exitDy=0;exitPerimeter=0;" edge="1" parent="1" source="kKd4rB5IMCep5pnRC2KL-59" target="kKd4rB5IMCep5pnRC2KL-4">
          <mxGeometry relative="1" as="geometry" />
        </mxCell>
        <mxCell id="kKd4rB5IMCep5pnRC2KL-64" style="rounded=0;orthogonalLoop=1;jettySize=auto;html=1;entryX=1;entryY=0.5;entryDx=0;entryDy=0;exitX=0;exitY=0.3333333333333333;exitDx=0;exitDy=0;exitPerimeter=0;" edge="1" parent="1" source="kKd4rB5IMCep5pnRC2KL-63" target="kKd4rB5IMCep5pnRC2KL-2">
          <mxGeometry relative="1" as="geometry" />
        </mxCell>
        <mxCell id="kKd4rB5IMCep5pnRC2KL-63" value="BDD" style="shape=umlActor;verticalLabelPosition=bottom;verticalAlign=top;html=1;outlineConnect=0;" vertex="1" parent="1">
          <mxGeometry x="550" y="140" width="30" height="60" as="geometry" />
        </mxCell>
        <mxCell id="kKd4rB5IMCep5pnRC2KL-65" style="rounded=0;orthogonalLoop=1;jettySize=auto;html=1;entryX=1;entryY=0.5;entryDx=0;entryDy=0;exitX=0;exitY=0.3333333333333333;exitDx=0;exitDy=0;exitPerimeter=0;" edge="1" parent="1" source="kKd4rB5IMCep5pnRC2KL-63" target="kKd4rB5IMCep5pnRC2KL-3">
          <mxGeometry relative="1" as="geometry" />
        </mxCell>
        <mxCell id="kKd4rB5IMCep5pnRC2KL-67" style="rounded=0;orthogonalLoop=1;jettySize=auto;html=1;entryX=0;entryY=0.5;entryDx=0;entryDy=0;exitX=1;exitY=0.3333333333333333;exitDx=0;exitDy=0;exitPerimeter=0;" edge="1" parent="1" source="kKd4rB5IMCep5pnRC2KL-66" target="kKd4rB5IMCep5pnRC2KL-11">
          <mxGeometry relative="1" as="geometry" />
        </mxCell>
        <mxCell id="kKd4rB5IMCep5pnRC2KL-68" style="rounded=0;orthogonalLoop=1;jettySize=auto;html=1;exitX=1;exitY=0.3333333333333333;exitDx=0;exitDy=0;exitPerimeter=0;" edge="1" parent="1" source="kKd4rB5IMCep5pnRC2KL-66" target="kKd4rB5IMCep5pnRC2KL-6">
          <mxGeometry relative="1" as="geometry">
            <mxPoint x="240" y="650" as="sourcePoint" />
          </mxGeometry>
        </mxCell>
        <mxCell id="kKd4rB5IMCep5pnRC2KL-66" value="User" style="shape=umlActor;verticalLabelPosition=bottom;verticalAlign=top;html=1;outlineConnect=0;" vertex="1" parent="1">
          <mxGeometry x="210" y="630" width="30" height="60" as="geometry" />
        </mxCell>
        <mxCell id="kKd4rB5IMCep5pnRC2KL-69" style="rounded=0;orthogonalLoop=1;jettySize=auto;html=1;exitX=1;exitY=0.3333333333333333;exitDx=0;exitDy=0;exitPerimeter=0;entryX=0;entryY=0.5;entryDx=0;entryDy=0;" edge="1" parent="1" source="kKd4rB5IMCep5pnRC2KL-66" target="kKd4rB5IMCep5pnRC2KL-12">
          <mxGeometry relative="1" as="geometry">
            <mxPoint x="240" y="650" as="sourcePoint" />
          </mxGeometry>
        </mxCell>
        <mxCell id="kKd4rB5IMCep5pnRC2KL-71" style="rounded=0;orthogonalLoop=1;jettySize=auto;html=1;entryX=1;entryY=0.5;entryDx=0;entryDy=0;exitX=0;exitY=0.3333333333333333;exitDx=0;exitDy=0;exitPerimeter=0;" edge="1" parent="1" source="kKd4rB5IMCep5pnRC2KL-70" target="kKd4rB5IMCep5pnRC2KL-11">
          <mxGeometry relative="1" as="geometry" />
        </mxCell>
        <mxCell id="kKd4rB5IMCep5pnRC2KL-72" style="rounded=0;orthogonalLoop=1;jettySize=auto;html=1;exitX=0;exitY=0.3333333333333333;exitDx=0;exitDy=0;exitPerimeter=0;entryX=1;entryY=0.5;entryDx=0;entryDy=0;" edge="1" parent="1" source="kKd4rB5IMCep5pnRC2KL-70" target="kKd4rB5IMCep5pnRC2KL-6">
          <mxGeometry relative="1" as="geometry" />
        </mxCell>
        <mxCell id="kKd4rB5IMCep5pnRC2KL-75" style="rounded=0;orthogonalLoop=1;jettySize=auto;html=1;entryX=1;entryY=0.5;entryDx=0;entryDy=0;exitX=0;exitY=0.3333333333333333;exitDx=0;exitDy=0;exitPerimeter=0;" edge="1" parent="1" source="kKd4rB5IMCep5pnRC2KL-70" target="kKd4rB5IMCep5pnRC2KL-12">
          <mxGeometry relative="1" as="geometry">
            <mxPoint x="580" y="610" as="sourcePoint" />
          </mxGeometry>
        </mxCell>
        <mxCell id="kKd4rB5IMCep5pnRC2KL-70" value="BDD" style="shape=umlActor;verticalLabelPosition=bottom;verticalAlign=top;html=1;outlineConnect=0;" vertex="1" parent="1">
          <mxGeometry x="570" y="560" width="30" height="60" as="geometry" />
        </mxCell>
        <mxCell id="kKd4rB5IMCep5pnRC2KL-78" style="rounded=0;orthogonalLoop=1;jettySize=auto;html=1;exitX=0;exitY=0.3333333333333333;exitDx=0;exitDy=0;exitPerimeter=0;entryX=1;entryY=0.5;entryDx=0;entryDy=0;" edge="1" parent="1" source="kKd4rB5IMCep5pnRC2KL-76" target="kKd4rB5IMCep5pnRC2KL-12">
          <mxGeometry relative="1" as="geometry" />
        </mxCell>
        <mxCell id="kKd4rB5IMCep5pnRC2KL-76" value="Router" style="shape=umlActor;verticalLabelPosition=bottom;verticalAlign=top;html=1;outlineConnect=0;" vertex="1" parent="1">
          <mxGeometry x="570" y="700" width="30" height="60" as="geometry" />
        </mxCell>
        <mxCell id="kKd4rB5IMCep5pnRC2KL-80" style="rounded=0;orthogonalLoop=1;jettySize=auto;html=1;entryX=0;entryY=0.5;entryDx=0;entryDy=0;exitX=1;exitY=0.3333333333333333;exitDx=0;exitDy=0;exitPerimeter=0;" edge="1" parent="1" source="kKd4rB5IMCep5pnRC2KL-79" target="kKd4rB5IMCep5pnRC2KL-27">
          <mxGeometry relative="1" as="geometry" />
        </mxCell>
        <mxCell id="kKd4rB5IMCep5pnRC2KL-79" value="User" style="shape=umlActor;verticalLabelPosition=bottom;verticalAlign=top;html=1;outlineConnect=0;" vertex="1" parent="1">
          <mxGeometry x="150" y="980" width="30" height="60" as="geometry" />
        </mxCell>
        <mxCell id="kKd4rB5IMCep5pnRC2KL-81" style="rounded=0;orthogonalLoop=1;jettySize=auto;html=1;entryX=0;entryY=0.5;entryDx=0;entryDy=0;exitX=1;exitY=0.3333333333333333;exitDx=0;exitDy=0;exitPerimeter=0;" edge="1" parent="1" source="kKd4rB5IMCep5pnRC2KL-79" target="kKd4rB5IMCep5pnRC2KL-26">
          <mxGeometry relative="1" as="geometry" />
        </mxCell>
        <mxCell id="kKd4rB5IMCep5pnRC2KL-84" style="rounded=0;orthogonalLoop=1;jettySize=auto;html=1;exitX=1;exitY=0.3333333333333333;exitDx=0;exitDy=0;exitPerimeter=0;entryX=0;entryY=0.5;entryDx=0;entryDy=0;" edge="1" parent="1" source="kKd4rB5IMCep5pnRC2KL-83" target="kKd4rB5IMCep5pnRC2KL-49">
          <mxGeometry relative="1" as="geometry" />
        </mxCell>
        <mxCell id="kKd4rB5IMCep5pnRC2KL-83" value="User" style="shape=umlActor;verticalLabelPosition=bottom;verticalAlign=top;html=1;outlineConnect=0;" vertex="1" parent="1">
          <mxGeometry x="190" y="1300" width="30" height="60" as="geometry" />
        </mxCell>
        <mxCell id="kKd4rB5IMCep5pnRC2KL-85" style="rounded=0;orthogonalLoop=1;jettySize=auto;html=1;exitX=1;exitY=0.3333333333333333;exitDx=0;exitDy=0;exitPerimeter=0;entryX=0;entryY=0.5;entryDx=0;entryDy=0;" edge="1" parent="1" source="kKd4rB5IMCep5pnRC2KL-83" target="kKd4rB5IMCep5pnRC2KL-46">
          <mxGeometry relative="1" as="geometry" />
        </mxCell>
        <mxCell id="kKd4rB5IMCep5pnRC2KL-86" style="rounded=0;orthogonalLoop=1;jettySize=auto;html=1;exitX=1;exitY=0.3333333333333333;exitDx=0;exitDy=0;exitPerimeter=0;entryX=0;entryY=0.5;entryDx=0;entryDy=0;" edge="1" parent="1" source="kKd4rB5IMCep5pnRC2KL-83" target="kKd4rB5IMCep5pnRC2KL-44">
          <mxGeometry relative="1" as="geometry" />
        </mxCell>
        <mxCell id="kKd4rB5IMCep5pnRC2KL-88" style="rounded=0;orthogonalLoop=1;jettySize=auto;html=1;entryX=0;entryY=0.5;entryDx=0;entryDy=0;exitX=1;exitY=0.3333333333333333;exitDx=0;exitDy=0;exitPerimeter=0;" edge="1" parent="1" source="kKd4rB5IMCep5pnRC2KL-87" target="kKd4rB5IMCep5pnRC2KL-34">
          <mxGeometry relative="1" as="geometry" />
        </mxCell>
        <mxCell id="kKd4rB5IMCep5pnRC2KL-92" style="rounded=0;orthogonalLoop=1;jettySize=auto;html=1;entryX=0;entryY=0.5;entryDx=0;entryDy=0;exitX=1;exitY=0.3333333333333333;exitDx=0;exitDy=0;exitPerimeter=0;" edge="1" parent="1" source="kKd4rB5IMCep5pnRC2KL-87" target="kKd4rB5IMCep5pnRC2KL-35">
          <mxGeometry relative="1" as="geometry" />
        </mxCell>
        <mxCell id="kKd4rB5IMCep5pnRC2KL-87" value="User" style="shape=umlActor;verticalLabelPosition=bottom;verticalAlign=top;html=1;outlineConnect=0;" vertex="1" parent="1">
          <mxGeometry x="180" y="1700" width="30" height="60" as="geometry" />
        </mxCell>
        <mxCell id="kKd4rB5IMCep5pnRC2KL-89" style="rounded=0;orthogonalLoop=1;jettySize=auto;html=1;entryX=0;entryY=0.5;entryDx=0;entryDy=0;exitX=1;exitY=0.3333333333333333;exitDx=0;exitDy=0;exitPerimeter=0;" edge="1" parent="1" source="kKd4rB5IMCep5pnRC2KL-87" target="kKd4rB5IMCep5pnRC2KL-31">
          <mxGeometry relative="1" as="geometry" />
        </mxCell>
        <mxCell id="kKd4rB5IMCep5pnRC2KL-91" style="rounded=0;orthogonalLoop=1;jettySize=auto;html=1;entryX=0;entryY=0.5;entryDx=0;entryDy=0;exitX=1;exitY=0.3333333333333333;exitDx=0;exitDy=0;exitPerimeter=0;" edge="1" parent="1" source="kKd4rB5IMCep5pnRC2KL-90" target="kKd4rB5IMCep5pnRC2KL-38">
          <mxGeometry relative="1" as="geometry" />
        </mxCell>
        <mxCell id="kKd4rB5IMCep5pnRC2KL-90" value="Developper" style="shape=umlActor;verticalLabelPosition=bottom;verticalAlign=top;html=1;outlineConnect=0;" vertex="1" parent="1">
          <mxGeometry x="180" y="1860" width="30" height="60" as="geometry" />
        </mxCell>
        <mxCell id="kKd4rB5IMCep5pnRC2KL-95" style="rounded=0;orthogonalLoop=1;jettySize=auto;html=1;exitX=0;exitY=0.3333333333333333;exitDx=0;exitDy=0;exitPerimeter=0;entryX=1;entryY=0.5;entryDx=0;entryDy=0;" edge="1" parent="1" source="kKd4rB5IMCep5pnRC2KL-93" target="kKd4rB5IMCep5pnRC2KL-4">
          <mxGeometry relative="1" as="geometry" />
        </mxCell>
        <mxCell id="kKd4rB5IMCep5pnRC2KL-93" value="Mailtrap" style="shape=umlActor;verticalLabelPosition=bottom;verticalAlign=top;html=1;outlineConnect=0;" vertex="1" parent="1">
          <mxGeometry x="540" y="330" width="30" height="60" as="geometry" />
        </mxCell>
        <mxCell id="kKd4rB5IMCep5pnRC2KL-97" style="rounded=0;orthogonalLoop=1;jettySize=auto;html=1;exitX=0;exitY=0.3333333333333333;exitDx=0;exitDy=0;exitPerimeter=0;entryX=1;entryY=0.5;entryDx=0;entryDy=0;" edge="1" parent="1" source="kKd4rB5IMCep5pnRC2KL-96" target="kKd4rB5IMCep5pnRC2KL-26">
          <mxGeometry relative="1" as="geometry" />
        </mxCell>
        <mxCell id="kKd4rB5IMCep5pnRC2KL-96" value="BDD" style="shape=umlActor;verticalLabelPosition=bottom;verticalAlign=top;html=1;outlineConnect=0;" vertex="1" parent="1">
          <mxGeometry x="550" y="1040" width="30" height="60" as="geometry" />
        </mxCell>
        <mxCell id="kKd4rB5IMCep5pnRC2KL-100" style="rounded=0;orthogonalLoop=1;jettySize=auto;html=1;exitX=0;exitY=0.3333333333333333;exitDx=0;exitDy=0;exitPerimeter=0;" edge="1" parent="1" source="kKd4rB5IMCep5pnRC2KL-98" target="kKd4rB5IMCep5pnRC2KL-27">
          <mxGeometry relative="1" as="geometry" />
        </mxCell>
        <mxCell id="kKd4rB5IMCep5pnRC2KL-98" value="Router" style="shape=umlActor;verticalLabelPosition=bottom;verticalAlign=top;html=1;outlineConnect=0;" vertex="1" parent="1">
          <mxGeometry x="550" y="900" width="30" height="60" as="geometry" />
        </mxCell>
        <mxCell id="kKd4rB5IMCep5pnRC2KL-102" style="rounded=0;orthogonalLoop=1;jettySize=auto;html=1;exitX=0;exitY=0.3333333333333333;exitDx=0;exitDy=0;exitPerimeter=0;entryX=1;entryY=0.5;entryDx=0;entryDy=0;" edge="1" parent="1" source="kKd4rB5IMCep5pnRC2KL-101" target="kKd4rB5IMCep5pnRC2KL-52">
          <mxGeometry relative="1" as="geometry" />
        </mxCell>
        <mxCell id="kKd4rB5IMCep5pnRC2KL-101" value="Livewire" style="shape=umlActor;verticalLabelPosition=bottom;verticalAlign=top;html=1;outlineConnect=0;" vertex="1" parent="1">
          <mxGeometry x="570" y="1200" width="30" height="60" as="geometry" />
        </mxCell>
        <mxCell id="kKd4rB5IMCep5pnRC2KL-104" style="rounded=0;orthogonalLoop=1;jettySize=auto;html=1;entryX=1;entryY=0.5;entryDx=0;entryDy=0;exitX=0;exitY=0.3333333333333333;exitDx=0;exitDy=0;exitPerimeter=0;" edge="1" parent="1" source="kKd4rB5IMCep5pnRC2KL-103" target="kKd4rB5IMCep5pnRC2KL-49">
          <mxGeometry relative="1" as="geometry" />
        </mxCell>
        <mxCell id="kKd4rB5IMCep5pnRC2KL-103" value="BDD" style="shape=umlActor;verticalLabelPosition=bottom;verticalAlign=top;html=1;outlineConnect=0;" vertex="1" parent="1">
          <mxGeometry x="560" y="1310" width="30" height="60" as="geometry" />
        </mxCell>
        <mxCell id="kKd4rB5IMCep5pnRC2KL-107" style="rounded=0;orthogonalLoop=1;jettySize=auto;html=1;entryX=1;entryY=0.5;entryDx=0;entryDy=0;exitX=0;exitY=0.3333333333333333;exitDx=0;exitDy=0;exitPerimeter=0;" edge="1" parent="1" source="kKd4rB5IMCep5pnRC2KL-103" target="kKd4rB5IMCep5pnRC2KL-46">
          <mxGeometry relative="1" as="geometry" />
        </mxCell>
        <mxCell id="kKd4rB5IMCep5pnRC2KL-108" style="rounded=0;orthogonalLoop=1;jettySize=auto;html=1;entryX=1;entryY=0.5;entryDx=0;entryDy=0;exitX=0;exitY=0.3333333333333333;exitDx=0;exitDy=0;exitPerimeter=0;" edge="1" parent="1" source="kKd4rB5IMCep5pnRC2KL-103" target="kKd4rB5IMCep5pnRC2KL-44">
          <mxGeometry relative="1" as="geometry" />
        </mxCell>
        <mxCell id="kKd4rB5IMCep5pnRC2KL-109" value="Mailtrap" style="shape=umlActor;verticalLabelPosition=bottom;verticalAlign=top;html=1;outlineConnect=0;" vertex="1" parent="1">
          <mxGeometry x="590" y="1820" width="30" height="60" as="geometry" />
        </mxCell>
        <mxCell id="kKd4rB5IMCep5pnRC2KL-112" style="rounded=0;orthogonalLoop=1;jettySize=auto;html=1;entryX=1;entryY=0.5;entryDx=0;entryDy=0;exitX=0;exitY=0.3333333333333333;exitDx=0;exitDy=0;exitPerimeter=0;" edge="1" parent="1" source="kKd4rB5IMCep5pnRC2KL-109" target="kKd4rB5IMCep5pnRC2KL-31">
          <mxGeometry relative="1" as="geometry" />
        </mxCell>
        <mxCell id="kKd4rB5IMCep5pnRC2KL-113" style="rounded=0;orthogonalLoop=1;jettySize=auto;html=1;entryX=1;entryY=0.5;entryDx=0;entryDy=0;exitX=0;exitY=0.3333333333333333;exitDx=0;exitDy=0;exitPerimeter=0;" edge="1" parent="1" source="kKd4rB5IMCep5pnRC2KL-109" target="kKd4rB5IMCep5pnRC2KL-38">
          <mxGeometry relative="1" as="geometry" />
        </mxCell>
      </root>
    </mxGraphModel>
  </diagram>
</mxfile>
